<?xml version="1.0" encoding="UTF-8"?>
<svg version="1.1" xmlns="http://www.w3.org/2000/svg" width="512" height="512">
<path d="M0 0 C10.77915034 8.88551582 17.92301946 22.1442198 19.41040039 36.05908203 C20.35321513 48.67131 18.02541497 60.77371161 10.5625 71.15625 C8.23384266 73.78823775 5.81855374 76.33918361 3.2578125 78.74658203 C-0.7841522 82.7533625 -1.17358204 85.6960807 -1.4375 91.15625 C0.295 91.0634375 0.295 91.0634375 2.0625 90.96875 C7.29785006 90.99654832 12.04982696 91.99980402 16.10546875 95.48046875 C21.74014887 101.77610841 21.95272325 108.56289212 21.80859375 116.6171875 C21.08436001 127.03235836 16.89182461 134.31857412 9.3125 141.34375 C6.51851872 143.69069428 3.81762928 144.88475239 0.4375 146.21875 C-4.13962492 148.3795948 -5.40661525 150.43210975 -7.125 155.15625 C-7.49496094 156.29964844 -7.86492187 157.44304687 -8.24609375 158.62109375 C-13.12240536 173.0901495 -23.2016451 185.11156733 -33.4375 196.15625 C-29.70426928 204.55601911 -21.55400218 210.349395 -13.4375 214.15625 C-5.74170041 217.06355207 2.45158689 217.65452 10.5625 218.59375 C18.95126163 219.57479447 26.80477728 220.62017174 34.5625 224.15625 C35.94888672 224.78660156 35.94888672 224.78660156 37.36328125 225.4296875 C44.43405645 228.96996499 49.98306611 233.59553905 55.5625 239.15625 C56.22765625 239.79820312 56.8928125 240.44015625 57.578125 241.1015625 C74.79531575 258.94865048 85.042191 285.26020099 96.2890625 307.01196289 C99.40186592 313.01050709 102.6578314 318.90812486 106 324.78125 C109.91323316 331.69128262 113.11518204 338.57525576 115.5625 346.15625 C115.86607422 347.07277344 115.86607422 347.07277344 116.17578125 348.0078125 C116.78201514 351.37577855 116.70603115 354.74651821 116.6875 358.15625 C116.69136719 358.8678125 116.69523437 359.579375 116.69921875 360.3125 C116.69283978 363.73163017 116.63450732 366.88918006 115.5625 370.15625 C116.65111328 370.29740234 116.65111328 370.29740234 117.76171875 370.44140625 C133.3079321 374.40926824 144.13343094 396.88212635 152.5625 409.15625 C153.12163086 409.95272949 153.68076172 410.74920898 154.25683594 411.56982422 C154.78825195 412.33955566 155.31966797 413.10928711 155.8671875 413.90234375 C156.33882324 414.57837646 156.81045898 415.25440918 157.29638672 415.95092773 C159.9284412 420.53545302 160.81347731 424.88323816 160.85302734 430.12646484 C160.86578705 431.28141449 160.87854675 432.43636414 160.89169312 433.62631226 C160.89503159 435.4780455 160.89503159 435.4780455 160.8984375 437.3671875 C160.9050943 438.64929108 160.9117511 439.93139465 160.91860962 441.25234985 C160.93054805 443.96058521 160.93429398 446.66869334 160.93310547 449.37695312 C160.9329024 452.82902113 160.96020588 456.28026478 160.99464989 459.73213768 C161.02237633 463.04799852 161.02107079 466.36371246 161.0234375 469.6796875 C161.03780853 470.91012787 161.05217957 472.14056824 161.06698608 473.40829468 C161.02470951 481.38680354 160.18041382 486.96367873 154.81640625 493.1796875 C154.25824219 493.62570312 153.70007813 494.07171875 153.125 494.53125 C152.56941406 494.99273437 152.01382812 495.45421875 151.44140625 495.9296875 C146.609501 499.08398739 142.1551491 499.44442926 136.5045042 499.41351891 C135.69408913 499.41702498 134.88367406 499.42053105 134.04870096 499.42414337 C131.32184341 499.43347794 128.59519846 499.42852875 125.86833191 499.42367554 C123.89806182 499.42741076 121.92779322 499.43201176 119.95752698 499.43740618 C114.53429944 499.44966741 109.11113343 499.44937204 103.68789518 499.44701743 C97.84250328 499.44661005 91.99713132 499.45764083 86.15174866 499.46713257 C74.69620394 499.48376057 63.2406798 499.48924292 51.78512403 499.49035732 C42.47562073 499.49130693 33.16612424 499.49541284 23.8566227 499.50175858 C21.17763768 499.50355364 18.49865266 499.50533327 15.81966764 499.50710833 C15.15367796 499.50755043 14.48768829 499.50799252 13.80151711 499.50844802 C-4.93366871 499.52075783 -23.66885221 499.528649 -42.40404224 499.52776146 C-43.11051762 499.5277303 -43.816993 499.52769914 -44.54487672 499.52766704 C-48.12564944 499.52750083 -51.70642216 499.52730274 -55.28719489 499.52709763 C-56.35394071 499.52703779 -56.35394071 499.52703779 -57.44223695 499.52697675 C-58.88038393 499.52689587 -60.3185309 499.52681228 -61.75667787 499.52672596 C-84.13281449 499.5255004 -106.50889049 499.54051396 -128.88500977 499.56787109 C-154.02014351 499.5985887 -179.15523744 499.61580379 -204.29039115 499.61394465 C-217.60056569 499.61320331 -230.91067611 499.61880369 -244.22083473 499.64030075 C-255.55265857 499.65848501 -266.88438308 499.66288253 -278.21621517 499.6492819 C-283.99944652 499.64273841 -289.78248716 499.64268495 -295.56570053 499.6599884 C-300.85886312 499.67566294 -306.15168287 499.67291296 -311.44483682 499.65542014 C-313.36070009 499.65233785 -315.2765886 499.65602864 -317.19242213 499.66714029 C-319.79602396 499.68124197 -322.39841999 499.67069075 -325.00198078 499.65402794 C-325.74641256 499.6639643 -326.49084433 499.67390066 -327.25783464 499.68413812 C-333.550775 499.59894699 -338.68178351 497.53425245 -343.4609375 493.41015625 C-343.90695312 492.85199219 -344.35296875 492.29382813 -344.8125 491.71875 C-345.27398437 491.16316406 -345.73546875 490.60757812 -346.2109375 490.03515625 C-348.89151167 485.92892638 -349.69411953 482.25863279 -349.77563477 477.39477539 C-349.80929893 475.69128685 -349.80929893 475.69128685 -349.84364319 473.9533844 C-349.85528 472.73255661 -349.86691681 471.51172882 -349.87890625 470.25390625 C-349.89267807 468.98461777 -349.90644989 467.71532928 -349.92063904 466.40757751 C-349.94390924 463.71843044 -349.96182583 461.02974966 -349.97290039 458.34057617 C-349.9860856 455.608083 -350.02067851 452.87723538 -350.07543945 450.14526367 C-350.6422806 421.26197994 -350.6422806 421.26197994 -342.4375 410.15625 C-341.70599731 409.03416138 -341.70599731 409.03416138 -340.9597168 407.8894043 C-339.7088493 406.01436516 -338.38938915 404.24256428 -337 402.46875 C-336.0478133 401.2138176 -335.09599306 399.95860708 -334.14453125 398.703125 C-333.6851416 398.10435547 -333.22575195 397.50558594 -332.75244141 396.88867188 C-330.84190605 394.37156105 -329.01908088 391.79363264 -327.1875 389.21875 C-321.98472648 382.08745351 -316.97281064 375.88428805 -309.4375 371.15625 C-308.7775 371.15625 -308.1175 371.15625 -307.4375 371.15625 C-307.7675 370.24875 -308.0975 369.34125 -308.4375 368.40625 C-312.70816506 352.99471958 -305.78741279 339.05861779 -298.76855469 325.69921875 C-297.23861698 322.77628567 -295.73220581 319.84176991 -294.2265625 316.90625 C-287.28033964 303.39256524 -280.17314849 289.97876226 -272.82373047 276.68017578 C-271.46154183 274.20002323 -270.12084145 271.70935169 -268.78515625 269.21484375 C-263.9584668 260.25703808 -258.9084248 252.04935607 -252.4375 244.15625 C-251.81617188 243.35960937 -251.19484375 242.56296875 -250.5546875 241.7421875 C-238.04585505 226.51176807 -220.44976698 220.05609329 -201.36547852 218.16943359 C-186.55401793 216.68081094 -176.50405113 214.59241353 -165.203125 204.33984375 C-163.01832804 202.10586855 -163.01832804 202.10586855 -163.4375 198.15625 C-165.47026727 195.63853046 -165.47026727 195.63853046 -168.1875 193.03125 C-180.11247094 180.62082391 -188.40877532 165.98524287 -194.265625 149.87890625 C-196.02016279 147.2997357 -198.21857381 146.66751889 -201.0625 145.46875 C-209.74340718 141.32606288 -214.88793116 135.44317606 -218.63476562 126.66040039 C-220.03229453 122.30077326 -220.01603976 118.0734664 -219.9375 113.53125 C-219.96070313 112.17773438 -219.96070313 112.17773438 -219.984375 110.796875 C-219.94902457 104.73427703 -218.99005241 101.09893162 -215.4375 96.15625 C-209.23717978 91.24766316 -205.013732 91.12563896 -197.4375 91.15625 C-197.46070313 89.898125 -197.48390625 88.64 -197.5078125 87.34375 C-197.86362926 60.10905356 -193.48755927 33.92622199 -173.87255859 13.55908203 C-159.36700509 -0.6207258 -142.22697513 -5.24975431 -122.56640625 -5.13818359 C-115.85491498 -5.01878052 -109.32378164 -4.47812325 -102.68017578 -3.5690918 C-89.57294094 -1.85346026 -76.70760754 -1.39812617 -64.4375 -6.84375 C-62.29205377 -7.74051003 -60.14621924 -8.63634161 -58 -9.53125 C-56.57880859 -10.15580078 -56.57880859 -10.15580078 -55.12890625 -10.79296875 C-36.23565215 -18.16929002 -15.33626617 -11.60050902 0 0 Z " fill="#020101" transform="translate(351.4375,12.84375)"/>
<path d="M0 0 C2.94394005 0.39325359 3.69721221 1.58366709 5.48046875 3.90625 C11.37873155 11.11100972 17.99195041 15.76419289 26.10546875 20.28125 C26.86472656 20.714375 27.62398438 21.1475 28.40625 21.59375 C56.68808505 36.80414868 94.82142711 37.01167037 125.10546875 28.28125 C141.90366628 23.10577295 157.27503023 15.85955887 168.90698242 2.15942383 C171.10546875 0.28125 171.10546875 0.28125 173.60058594 -0.06860352 C174.52516602 0.00430908 175.44974609 0.07722168 176.40234375 0.15234375 C177.43609131 0.22936523 178.46983887 0.30638672 179.53491211 0.38574219 C180.6306958 0.49563477 181.72647949 0.60552734 182.85546875 0.71875 C183.97767822 0.82219727 185.0998877 0.92564453 186.25610352 1.03222656 C203.20527501 2.79931186 218.91804324 7.72396909 230.10546875 21.28125 C238.01038239 31.86146605 244.19316253 43.41916612 250.3828125 55.05517578 C251.95117665 57.99230218 253.53274215 60.92166359 255.12101746 63.84803772 C256.50789411 66.40375307 257.89069578 68.96166035 259.27285767 71.51992798 C259.94919441 72.7705652 260.62673283 74.02055336 261.30551147 75.26986694 C262.25751542 77.02390503 263.20310558 78.78141956 264.1484375 80.5390625 C264.6952417 81.5511377 265.2420459 82.56321289 265.80541992 83.60595703 C266.90830997 85.8755287 267.63231369 87.81761848 268.10546875 90.28125 C267.26064941 90.27077637 266.41583008 90.26030273 265.54541016 90.24951172 C242.25820591 89.99436385 242.25820591 89.99436385 219.10546875 92.28125 C220.01053632 76.76030405 220.01053632 76.76030405 220.66796875 71.03125 C222.16755927 58.39648826 222.16755927 58.39648826 217.10546875 47.28125 C212.7210559 43.88109309 209.27255134 42.16204027 203.74072266 42.14080811 C202.84903381 42.13509796 201.95734497 42.12938782 201.03863525 42.12350464 C200.06295593 42.12238678 199.08727661 42.12126892 198.08203125 42.12011719 C196.53778473 42.11266983 196.53778473 42.11266983 194.96234131 42.10507202 C191.55171037 42.09044842 188.1411259 42.0836491 184.73046875 42.078125 C182.36539712 42.07237504 180.0003255 42.06661729 177.63525391 42.06085205 C172.67545351 42.05034241 167.71566934 42.04449906 162.75585938 42.04101562 C156.38997223 42.03552183 150.02429801 42.01147462 143.65847778 41.98304367 C138.77383794 41.96445556 133.88924987 41.9592138 129.00457764 41.95767975 C126.6569502 41.95464555 124.30932383 41.94659138 121.96173096 41.93349457 C118.68395571 41.91650935 115.4067072 41.91829564 112.12890625 41.92480469 C111.15322693 41.9155899 110.17754761 41.90637512 109.17230225 41.8968811 C108.2806134 41.90245026 107.38892456 41.90801941 106.47021484 41.91375732 C105.69519623 41.91229076 104.92017761 41.9108242 104.12167358 41.9093132 C101.54861367 42.38397513 100.66811614 43.21279677 99.10546875 45.28125 C98.59491497 48.70925396 98.60336228 50.51579496 100.52120972 53.43952942 C104.46680801 56.25143391 108.15662832 55.84466162 112.89111328 55.8112793 C114.37946686 55.82437637 114.37946686 55.82437637 115.89788818 55.83773804 C119.17820249 55.86213953 122.45788765 55.8587017 125.73828125 55.85546875 C128.01464924 55.86790896 130.2910076 55.8822418 132.56735229 55.89839172 C138.56054662 55.93646406 144.55357556 55.95161405 150.546875 55.96118164 C160.14763794 55.98090749 169.74827442 56.03765825 179.34890366 56.08994484 C182.70926766 56.10533586 186.06956905 56.1124906 189.42996216 56.11808777 C191.47951285 56.12510141 193.52906324 56.13220213 195.57861328 56.1394043 C196.98906418 56.13861122 196.98906418 56.13861122 198.42800903 56.13780212 C199.71082764 56.14381439 199.71082764 56.14381439 201.01956177 56.14994812 C202.13727809 56.15183403 202.13727809 56.15183403 203.27757454 56.15375805 C205.10546875 56.28125 205.10546875 56.28125 207.10546875 57.28125 C206.54022703 68.43287179 205.64824612 79.49569305 204.41796875 90.59375 C204.05922827 93.87725447 203.70449572 97.16117899 203.3515625 100.4453125 C203.25554749 101.33770126 203.15953247 102.23009003 203.06060791 103.14952087 C202.25233968 110.73840155 201.50843898 118.33310362 200.77699089 125.92970467 C200.57851211 127.98817268 200.3788901 130.04652647 200.17884827 132.10484314 C200.11275203 132.78509835 200.04665579 133.46535357 199.97855663 134.16622257 C199.84488462 135.54176194 199.71117756 136.91729791 199.57743549 138.29283047 C199.24469937 141.72122751 198.91533698 145.14989271 198.59268188 148.57925415 C198.22815782 152.45344551 197.8507166 156.3263239 197.47265625 160.19921875 C197.36442032 161.37563934 197.25618439 162.55205994 197.14466858 163.76412964 C197.03746994 164.84381012 196.9302713 165.9234906 196.81982422 167.03588867 C196.72974091 167.98050461 196.63965759 168.92512054 196.54684448 169.89836121 C196.10546875 172.28125 196.10546875 172.28125 194.10546875 175.28125 C191.23824111 175.57985027 188.58625381 175.68099099 185.71618652 175.6554718 C184.83792505 175.65944621 183.95966357 175.66342061 183.05478811 175.66751546 C180.09430638 175.67718577 177.1342969 175.66529187 174.17382812 175.65356445 C172.05857667 175.65599086 169.94332635 175.6597087 167.82807922 175.66462708 C162.06992172 175.67406042 156.31193346 175.66459013 150.55378914 175.65129495 C144.53956184 175.64000972 138.52534324 175.64408568 132.5111084 175.64604187 C122.40955833 175.64692578 112.30807525 175.6358243 102.20654297 175.61743164 C90.51289894 175.59626257 78.8193531 175.59275357 67.1256938 175.5989936 C55.89594184 175.60468022 44.66622461 175.59904989 33.43647766 175.58782005 C28.64861919 175.58316475 23.86078188 175.58230423 19.07292175 175.5844059 C13.43904259 175.5862839 7.80526394 175.57822259 2.1714077 175.5623455 C0.09850162 175.55808812 -1.97441463 175.5572618 -4.04732323 175.56003571 C-6.86674365 175.56323727 -9.6858599 175.55422716 -12.50524902 175.54194641 C-13.74929497 175.5476154 -13.74929497 175.5476154 -15.01847315 175.55339891 C-20.66620246 175.50957879 -20.66620246 175.50957879 -22.89453125 173.28125 C-25.87887314 160.44897937 -26.1458602 146.62047755 -27.33203125 133.53125 C-28.67800104 118.70118729 -30.10080201 103.89294634 -31.870224 89.10650635 C-34.04130614 70.90893238 -34.04130614 70.90893238 -34.01953125 62.65625 C-34.02339844 61.15191406 -34.02339844 61.15191406 -34.02734375 59.6171875 C-33.89453125 57.28125 -33.89453125 57.28125 -32.89453125 56.28125 C-31.52489012 56.18244581 -30.15022182 56.15217423 -28.77702332 56.14994812 C-27.88952896 56.14593994 -27.00203461 56.14193176 -26.08764648 56.13780212 C-24.61569824 56.1385952 -24.61569824 56.1385952 -23.11401367 56.1394043 C-22.08641434 56.13592987 -21.058815 56.13245544 -20.00007629 56.12887573 C-17.76015455 56.12150325 -15.52022543 56.11616586 -13.28029442 56.11258507 C-9.73793416 56.10544443 -6.19571443 56.08979609 -2.65339661 56.07124329 C7.42123487 56.01865964 17.49579089 55.97077955 27.57055664 55.95532227 C33.72506926 55.9452584 39.87923127 55.91597215 46.03360558 55.87400246 C48.38315876 55.86166263 50.73276142 55.8565766 53.08234596 55.85880089 C56.36753556 55.86114548 59.65171426 55.83904992 62.93676758 55.8112793 C64.39960678 55.82118141 64.39960678 55.82118141 65.89199829 55.83128357 C71.14565377 55.8044988 71.14565377 55.8044988 75.70976257 53.43952942 C77.61621443 50.49144774 77.69085756 48.72040923 77.10546875 45.28125 C74.29596693 42.60807997 72.33786194 41.9047832 68.5022583 41.88684082 C67.58276398 41.87549103 66.66326965 41.86414124 65.71591187 41.85244751 C64.71428009 41.85537811 63.71264832 41.85830872 62.68066406 41.86132812 C61.08972427 41.84862381 61.08972427 41.84862381 59.46664429 41.83566284 C55.95550587 41.81223814 52.44480445 41.81127223 48.93359375 41.8125 C46.49224675 41.80540028 44.05090142 41.79770156 41.60955811 41.78942871 C36.48835618 41.77597023 31.36730843 41.77442068 26.24609375 41.78027344 C19.69107654 41.78616185 13.13680193 41.75561878 6.58192825 41.71515656 C1.53749625 41.68927091 -3.50675738 41.68640315 -8.55124664 41.69004822 C-10.96731681 41.6883569 -13.38339521 41.67871334 -15.79940033 41.66090393 C-19.18415013 41.63870519 -22.56740261 41.64842349 -25.95214844 41.66601562 C-26.94568329 41.65275238 -27.93921814 41.63948914 -28.96286011 41.62582397 C-35.5108118 41.7046774 -39.81187143 43.08349508 -44.89453125 47.28125 C-48.80165962 51.62677664 -48.27962 56.42704116 -48.14453125 61.96875 C-48.13357422 62.86706543 -48.12261719 63.76538086 -48.11132812 64.69091797 C-48.02493331 69.86052079 -47.76788097 74.96151979 -47.1171875 80.09375 C-46.70472921 84.14597177 -46.81663341 88.21325191 -46.89453125 92.28125 C-48.9155783 92.13840908 -50.93636102 91.99182617 -52.95703125 91.84375 C-54.64505859 91.72193359 -54.64505859 91.72193359 -56.3671875 91.59765625 C-58.64438011 91.3933898 -60.9169567 91.12119173 -63.17578125 90.76757812 C-66.81132474 90.29213152 -70.25806749 90.16731016 -73.921875 90.18359375 C-75.85063477 90.18842773 -75.85063477 90.18842773 -77.81835938 90.19335938 C-79.1562507 90.20171198 -80.49414132 90.21017689 -81.83203125 90.21875 C-83.19726399 90.22377341 -84.56249851 90.22833483 -85.92773438 90.23242188 C-89.25004582 90.24416149 -92.57226533 90.26058321 -95.89453125 90.28125 C-90.28850369 77.84905947 -84.00236959 65.88360075 -77.37744141 53.96630859 C-75.97175918 51.42108418 -74.5909813 48.86416061 -73.21875 46.30078125 C-68.40220006 37.35760961 -63.29247103 29.18531958 -56.89453125 21.28125 C-56.25644531 20.43304688 -55.61835937 19.58484375 -54.9609375 18.7109375 C-42.0614772 3.54370819 -23.47535108 1.9733532 -5.0078125 0.45068359 C-3.33715633 0.31673773 -1.66816092 0.16208851 0 0 Z " fill="#E5E5E5" transform="translate(168.89453125,244.71875)"/>
<path d="M0 0 C3.05078125 1.390625 3.05078125 1.390625 6.3125 3.25 C26.36294491 13.97183096 50.8761258 13.37700629 73 14 C73.24234375 15.02480469 73.4846875 16.04960937 73.734375 17.10546875 C74.07224003 18.466314 74.41081969 19.82698197 74.75 21.1875 C74.90726562 21.86103516 75.06453125 22.53457031 75.2265625 23.22851562 C76.66918803 28.91578936 78.5602623 32.46834219 83.57032776 35.61364174 C87.91007041 37.36787294 91.47702819 37.41775695 96.10913086 37.38095093 C97.01657264 37.3856309 97.92401442 37.39031087 98.85895443 37.39513266 C101.8944003 37.40708219 104.92939467 37.39762547 107.96484375 37.38818359 C110.14316064 37.39224931 112.32147546 37.39759118 114.49978638 37.40411377 C120.41291991 37.41779314 126.32589646 37.41248607 132.23903275 37.40297651 C138.42620518 37.39538319 144.61336415 37.40242462 150.80053711 37.40713501 C161.19094253 37.4125935 171.58128398 37.40539845 181.97167969 37.39111328 C193.98573263 37.37478663 205.99960753 37.38007506 218.01365948 37.3965925 C228.32717795 37.41020465 238.64065044 37.41212833 248.954175 37.40427649 C255.11464758 37.39959851 261.27504838 37.39897864 267.43551636 37.40888596 C273.22708158 37.41754934 279.01844981 37.411545 284.80999374 37.39420319 C286.9360509 37.39023501 289.06212463 37.39137802 291.1881752 37.39799118 C294.08929732 37.40618351 296.98978734 37.39591275 299.89086914 37.38095093 C300.7330899 37.38764309 301.57531065 37.39433526 302.44305325 37.40123022 C308.74902275 37.33810886 312.81647764 35.87884483 317.6875 31.6875 C321.55500847 26.809449 321.99518572 19.96353189 323 14 C323.70793701 13.98541748 324.41587402 13.97083496 325.14526367 13.95581055 C360.15691154 13.59490584 360.15691154 13.59490584 392.69921875 1.8515625 C397.30458123 -0.7318006 400.86133772 -1.18770968 406 0 C409.18842464 1.89814488 411.52727716 4.25356112 414 7 C414.77452515 7.84425537 414.77452515 7.84425537 415.56469727 8.70556641 C420.01684373 13.65020422 423.85478319 18.85652484 427.5625 24.375 C428.12606201 25.20990967 428.68962402 26.04481934 429.27026367 26.9050293 C430.85529085 29.26451919 432.42941783 31.63087959 434 34 C434.71671875 35.07121094 435.4334375 36.14242187 436.171875 37.24609375 C438.35885146 40.66714979 439.85886555 43.31998858 440.6875 47.3125 C439.74269523 51.00582773 437.88812098 52.59323252 435 55 C431.69965314 56.65017343 428.02419311 56.13876066 424.39639282 56.13130188 C423.04436534 56.13447545 423.04436534 56.13447545 421.66502416 56.13771313 C418.6264429 56.14373359 415.58790293 56.14271153 412.54931641 56.1418457 C410.37819854 56.14487581 408.20708131 56.14839685 406.03596497 56.15237427 C401.35147658 56.16027455 396.66699585 56.1654124 391.98250198 56.16866493 C384.57973129 56.17456285 377.17700898 56.19109114 369.77426147 56.21000671 C367.24258617 56.21634437 364.71091083 56.22266999 362.17923546 56.22898388 C360.27722913 56.2337326 360.27722913 56.2337326 358.33679843 56.23857725 C341.09562777 56.28070143 323.85449613 56.31363967 306.61328125 56.32592773 C294.99255991 56.33429523 283.371958 56.35673739 271.7512964 56.3952834 C265.59751223 56.41508862 259.44390675 56.42743385 253.29008865 56.42244911 C247.50344428 56.41781898 241.71713896 56.43151847 235.93056297 56.45946121 C233.80367712 56.46640063 231.6767564 56.46647022 229.54987144 56.45926094 C226.65203113 56.45042855 223.7553225 56.46597516 220.85757446 56.48774719 C220.01069049 56.47930466 219.16380653 56.47086212 218.29125941 56.46216375 C214.65357426 56.51289944 212.45661365 56.66609248 209.4776516 58.8445158 C207.45380455 61.79674781 207.41552034 63.49312206 208 67 C209.42811514 69.32653725 209.42811514 69.32653725 212 71 C215.03355618 71.38845846 217.70193778 71.53186787 220.73454285 71.49447632 C221.62590842 71.49930515 222.51727399 71.50413398 223.43565065 71.50910914 C226.42899493 71.52040014 229.42148871 71.50304533 232.41479492 71.48583984 C234.55839266 71.48798529 236.70198926 71.49186235 238.84558105 71.49734497 C244.67438912 71.50705421 250.50289175 71.49171281 256.33166289 71.47143888 C262.43068459 71.4538857 268.52969659 71.4573927 274.6287384 71.4581604 C284.87730015 71.45628597 295.12574364 71.43890699 305.37426758 71.41162109 C317.21550646 71.38021073 329.05661559 71.36962342 340.89789313 71.3710922 C353.50611139 71.37244483 366.11427974 71.35854752 378.72248292 71.34019899 C382.35258503 71.33594088 385.98267905 71.33451722 389.61278343 71.33372116 C395.32633308 71.33170726 401.03977441 71.31945656 406.75328827 71.29938889 C408.8474416 71.29356228 410.9416074 71.2910834 413.03576851 71.29224396 C415.90080597 71.2932306 418.76554343 71.28186294 421.63053894 71.26742554 C422.45371257 71.27052274 423.27688619 71.27361995 424.12500447 71.276811 C429.63719292 71.23113868 434.66935411 70.39203572 440 69 C440.11638426 73.06225821 440.18731373 77.1240863 440.25 81.1875 C440.30027344 82.91323242 440.30027344 82.91323242 440.3515625 84.67382812 C440.36445313 85.78564453 440.37734375 86.89746094 440.390625 88.04296875 C440.41157227 89.06414795 440.43251953 90.08532715 440.45410156 91.13745117 C439.88121902 94.74876717 438.50385825 96.38934073 436 99 C432.9535223 100.52323885 429.78280494 100.14086774 426.44053078 100.13422108 C425.64757422 100.13657331 424.85461766 100.13892554 424.03763211 100.14134905 C421.35219252 100.14806244 418.66680106 100.14758012 415.98135376 100.14717102 C414.04794629 100.15046818 412.11453952 100.15419343 410.18113363 100.1583125 C404.84603563 100.16835725 399.51094888 100.17205325 394.17584276 100.17470181 C388.43068492 100.17859748 382.68553605 100.18817622 376.94038391 100.19691467 C363.05602278 100.21669865 349.17166091 100.22674715 335.2872892 100.23564246 C328.75573845 100.24002167 322.22418851 100.24538938 315.6926384 100.25063133 C293.99274917 100.26764455 272.2928609 100.2821654 250.59296608 100.28938007 C249.18919518 100.28985483 247.78542429 100.29033072 246.38165339 100.29080774 C245.68549453 100.29104411 244.98933568 100.29128049 244.2720811 100.29152403 C240.74486396 100.29272525 237.21764682 100.29394069 233.69042969 100.29516602 C232.99043727 100.29540617 232.29044486 100.29564632 231.56924055 100.29589374 C208.86319215 100.30379033 186.15719593 100.32722949 163.45117033 100.35972196 C139.45793437 100.39399392 115.46473029 100.41372756 91.47146928 100.41702431 C78.38717221 100.41919361 65.30295184 100.42800356 52.21867752 100.45348549 C41.0795418 100.47512862 29.94050139 100.48327447 18.80134703 100.47351871 C13.1138147 100.46895559 7.42647929 100.47097651 1.73897362 100.49028015 C-3.46219101 100.5077814 -8.66301315 100.50702108 -13.86418076 100.49138286 C-15.7511286 100.48898683 -17.63809935 100.49343236 -19.52501194 100.50521151 C-22.08004741 100.52018026 -24.63384555 100.51076343 -27.1888485 100.49498463 C-28.30088589 100.51031794 -28.30088589 100.51031794 -29.43538868 100.52596101 C-32.88567341 100.47910198 -34.67468617 100.25560798 -37.42569697 98.09406346 C-40.02951773 94.63058419 -40.11937567 92.63638327 -40.09765625 88.3359375 C-40.09443359 87.21445312 -40.09121094 86.09296875 -40.08789062 84.9375 C-40.07951172 83.761875 -40.07113281 82.58625 -40.0625 81.375 C-40.05798828 80.19164062 -40.05347656 79.00828125 -40.04882812 77.7890625 C-40.03701467 74.85932493 -40.02054258 71.92968728 -40 69 C-39.42052032 69.16223169 -38.84104064 69.32446338 -38.24400097 69.49161118 C-34.61187862 70.31448533 -30.93163707 70.14798607 -27.2250824 70.14717102 C-25.88168394 70.15268605 -25.88168394 70.15268605 -24.51114613 70.1583125 C-21.50408838 70.1693436 -18.49706519 70.17319213 -15.48999023 70.17700195 C-13.33665863 70.18326675 -11.18332811 70.18991357 -9.02999878 70.19691467 C-3.17691885 70.21431615 2.67615292 70.22487291 8.52925229 70.2331202 C12.18302061 70.23826943 15.83678638 70.24434503 19.4905529 70.25063133 C30.91410347 70.26967624 42.33764758 70.28391202 53.76121098 70.2922433 C66.96454477 70.30203103 80.16771161 70.32839354 93.37098652 70.36874419 C103.56805873 70.39884319 113.76508288 70.41370603 123.96219867 70.41702431 C130.05726238 70.4193808 136.15214756 70.42841961 142.24716377 70.45348549 C147.97550822 70.47666424 153.70355528 70.48104072 159.43193436 70.47072411 C161.53830005 70.47022623 163.6446799 70.47662004 165.75100136 70.49028015 C168.61838535 70.50784123 171.48468344 70.50097142 174.35206604 70.48774719 C175.61304205 70.50420106 175.61304205 70.50420106 176.89949232 70.52098733 C181.36926759 70.49861256 181.36926759 70.49861256 185.04440212 68.1960783 C186.51375056 64.81933971 185.9679112 62.48448034 185 59 C181.36299307 56.14105582 176.7901655 56.72346823 172.39039612 56.7484436 C171.51254249 56.74547346 170.63468886 56.74250333 169.73023361 56.73944318 C166.78306174 56.7317929 163.83608855 56.73830142 160.88891602 56.74462891 C158.77823755 56.74187953 156.66756013 56.73819995 154.55688477 56.73365784 C150.00883652 56.72554001 145.46083746 56.72337883 140.91278267 56.72560501 C133.72379144 56.72843408 126.53489882 56.71410169 119.34593201 56.69662476 C98.90243 56.64955769 78.45893462 56.62565173 58.01538086 56.61914062 C46.72681634 56.6153935 35.43836325 56.59739241 24.14984649 56.56404626 C17.00087432 56.54379461 9.85218876 56.54148041 2.70319951 56.55232644 C-1.7417123 56.55492897 -6.18645636 56.54095198 -10.63132477 56.52224541 C-12.69490765 56.5169118 -14.75852122 56.51844007 -16.82209206 56.52728081 C-19.63626874 56.53836627 -22.44930578 56.52501195 -25.26341248 56.50552368 C-26.49230427 56.51921067 -26.49230427 56.51921067 -27.74602216 56.53317416 C-31.5398269 56.48194504 -33.75428006 56.15702454 -36.98353672 54.09340477 C-39.22999928 51.76122471 -39.88346521 50.66591309 -40.4375 47.5 C-38.4981765 31.98541198 -19.6947817 12.25073189 -8.62890625 1.75 C-5.36643469 -0.42174927 -3.85630519 -0.56695995 0 0 Z " fill="#B3712E" transform="translate(57,397)"/>
<path d="M0 0 C1.03350586 0.37044434 2.06701172 0.74088867 3.13183594 1.12255859 C4.87255371 1.74831787 4.87255371 1.74831787 6.6484375 2.38671875 C7.8650708 2.82387207 9.0817041 3.26102539 10.33520508 3.71142578 C12.75404655 4.58821027 15.16830544 5.47778199 17.5769043 6.38232422 C28.32594816 10.35412059 39.50723494 13.38269508 51 14 C52.57974609 14.09667969 52.57974609 14.09667969 54.19140625 14.1953125 C72.94987424 14.78212589 91.59362423 11.00727576 109.34375 5.171875 C113 4 113 4 115 4 C115.07485365 10.17062815 115.12893104 16.34098472 115.16479492 22.51196289 C115.17976556 24.6057598 115.20014933 26.699526 115.22631836 28.79321289 C115.40616691 43.5654789 115.36745756 56.9202527 108.1875 70.25 C107.83204102 70.92981934 107.47658203 71.60963867 107.11035156 72.31005859 C93.98677016 97.04842372 73.51886376 115.20763632 46.890625 124.125 C32.26423832 128.55244678 18.22465544 125.1924294 4.94238281 118.30859375 C-17.88973089 106.0000586 -38.0036125 86.22400952 -46 61 C-46.26997803 60.19699463 -46.53995605 59.39398926 -46.81811523 58.56665039 C-50.15172419 46.86618284 -49.32520388 34.73702228 -49.1875 22.6875 C-49.17242624 20.38607646 -49.1587426 18.08464338 -49.14648438 15.78320312 C-49.11369184 10.18859112 -49.06370612 4.59434097 -49 -1 C-34.14328138 -7.12003011 -14.79651256 -5.33419468 0 0 Z " fill="#FDDCA5" transform="translate(219,99)"/>
<path d="M0 0 C0.2475 0.5775 0.495 1.155 0.75 1.75 C2.28998784 4.52197811 3.45819 6.05301754 6 8 C9.03355618 8.38845846 11.70193778 8.53186787 14.73454285 8.49447632 C15.62590842 8.49930515 16.51727399 8.50413398 17.43565065 8.50910914 C20.42899493 8.52040014 23.42148871 8.50304533 26.41479492 8.48583984 C28.55839266 8.48798529 30.70198926 8.49186235 32.84558105 8.49734497 C38.67438912 8.50705421 44.50289175 8.49171281 50.33166289 8.47143888 C56.43068459 8.4538857 62.52969659 8.4573927 68.6287384 8.4581604 C78.87730015 8.45628597 89.12574364 8.43890699 99.37426758 8.41162109 C111.21550646 8.38021073 123.05661559 8.36962342 134.89789313 8.3710922 C147.50611139 8.37244483 160.11427974 8.35854752 172.72248292 8.34019899 C176.35258503 8.33594088 179.98267905 8.33451722 183.61278343 8.33372116 C189.32633308 8.33170726 195.03977441 8.31945656 200.75328827 8.29938889 C202.8474416 8.29356228 204.9416074 8.2910834 207.03576851 8.29224396 C209.90080597 8.2932306 212.76554343 8.28186294 215.63053894 8.26742554 C216.45371257 8.27052274 217.27688619 8.27361995 218.12500447 8.276811 C223.63719292 8.23113868 228.66935411 7.39203572 234 6 C234.11638426 10.06225821 234.18731373 14.1240863 234.25 18.1875 C234.28351563 19.33798828 234.31703125 20.48847656 234.3515625 21.67382812 C234.36445313 22.78564453 234.37734375 23.89746094 234.390625 25.04296875 C234.41157227 26.06414795 234.43251953 27.08532715 234.45410156 28.13745117 C233.88121902 31.74876717 232.50385825 33.38934073 230 36 C226.9535223 37.52323885 223.78280494 37.14086774 220.44053078 37.13422108 C219.64757422 37.13657331 218.85461766 37.13892554 218.03763211 37.14134905 C215.35219252 37.14806244 212.66680106 37.14758012 209.98135376 37.14717102 C208.04794629 37.15046818 206.11453952 37.15419343 204.18113363 37.1583125 C198.84603563 37.16835725 193.51094888 37.17205325 188.17584276 37.17470181 C182.43068492 37.17859748 176.68553605 37.18817622 170.94038391 37.19691467 C157.05602278 37.21669865 143.17166091 37.22674715 129.2872892 37.23564246 C122.75573845 37.24002167 116.22418851 37.24538938 109.6926384 37.25063133 C87.99274917 37.26764455 66.2928609 37.2821654 44.59296608 37.28938007 C43.18919518 37.28985483 41.78542429 37.29033072 40.38165339 37.29080774 C39.68549453 37.29104411 38.98933568 37.29128049 38.2720811 37.29152403 C34.74486396 37.29272525 31.21764682 37.29394069 27.69042969 37.29516602 C26.99043727 37.29540617 26.29044486 37.29564632 25.56924055 37.29589374 C2.86319215 37.30379033 -19.84280407 37.32722949 -42.54882967 37.35972196 C-66.54206563 37.39399392 -90.53526971 37.41372756 -114.52853072 37.41702431 C-127.61282779 37.41919361 -140.69704816 37.42800356 -153.78132248 37.45348549 C-164.9204582 37.47512862 -176.05949861 37.48327447 -187.19865297 37.47351871 C-192.8861853 37.46895559 -198.57352071 37.47097651 -204.26102638 37.49028015 C-209.46219101 37.5077814 -214.66301315 37.50702108 -219.86418076 37.49138286 C-221.7511286 37.48898683 -223.63809935 37.49343236 -225.52501194 37.50521151 C-228.08004741 37.52018026 -230.63384555 37.51076343 -233.1888485 37.49498463 C-233.93020676 37.50520683 -234.67156502 37.51542904 -235.43538868 37.52596101 C-238.88567341 37.47910198 -240.67468617 37.25560798 -243.42569697 35.09406346 C-246.02951773 31.63058419 -246.11937567 29.63638327 -246.09765625 25.3359375 C-246.09443359 24.21445312 -246.09121094 23.09296875 -246.08789062 21.9375 C-246.07951172 20.761875 -246.07113281 19.58625 -246.0625 18.375 C-246.05798828 17.19164062 -246.05347656 16.00828125 -246.04882812 14.7890625 C-246.03701467 11.85932493 -246.02054258 8.92968728 -246 6 C-245.42046271 6.16211647 -244.84092542 6.32423293 -244.24382639 6.49126202 C-240.61427226 7.3141831 -236.93609621 7.15541213 -233.23181152 7.16062927 C-232.33691812 7.16571709 -231.44202472 7.17080491 -230.52001333 7.17604691 C-227.51529688 7.19176872 -224.51060447 7.20029559 -221.50585938 7.20874023 C-219.35414985 7.2182785 -217.20244187 7.22816965 -215.05073547 7.23838806 C-207.98175882 7.26976198 -200.9127704 7.29003158 -193.84375 7.30859375 C-192.64189497 7.31189107 -191.44003994 7.31518839 -190.20176506 7.31858563 C-178.87337427 7.34935405 -167.54498085 7.37606697 -156.21656036 7.39300442 C-141.71348897 7.41494178 -127.21078631 7.45698793 -112.70786238 7.52644199 C-102.51587349 7.57360082 -92.32398442 7.59792671 -82.13188982 7.6052013 C-76.04060392 7.61016777 -69.94973379 7.62534463 -63.85856628 7.6649456 C-58.13258203 7.70168401 -52.40725327 7.71026362 -46.68117332 7.69693947 C-44.57682364 7.69699362 -42.47244581 7.70737252 -40.36820412 7.7286911 C-37.50073078 7.7561958 -34.63567787 7.74694396 -31.76818848 7.72825623 C-30.93045064 7.74505115 -30.09271281 7.76184608 -29.22958899 7.77914995 C-26.62077399 7.80269163 -26.62077399 7.80269163 -23 7 C-20.53438688 4.12813789 -20.53438688 4.12813789 -19 1 C-16.80175781 0.22705078 -16.80175781 0.22705078 -14.453125 0.1953125 C-13.18662109 0.15664063 -13.18662109 0.15664063 -11.89453125 0.1171875 C-11.02183594 0.11976563 -10.14914063 0.12234375 -9.25 0.125 C-8.36183594 0.104375 -7.47367188 0.08375 -6.55859375 0.0625 C-4.37145806 0.01546482 -2.18753732 -0.0044488 0 0 Z " fill="#88521D" transform="translate(263,460)"/>
<path d="M0 0 C8.44500022 6.01991569 15.01456734 15.32476358 17.4375 25.4609375 C18.76212393 37.19137 16.72467934 46.5432289 9.5 55.8984375 C5.18498874 61.10561809 1.04075723 64.56559974 -5.4375 66.6796875 C-6.57687012 67.05295166 -7.71624023 67.42621582 -8.89013672 67.81079102 C-10.1020166 68.19033936 -11.31389648 68.5698877 -12.5625 68.9609375 C-13.81691895 69.35531006 -15.07133789 69.74968262 -16.36376953 70.15600586 C-46.95290321 79.61926784 -71.69998226 79.28408457 -101.625 68.4609375 C-124.36151156 60.24202106 -143.39055832 57.92170501 -167.5625 60.4609375 C-165.16116171 41.15544155 -159.65281666 25.42520649 -144.5625 12.4609375 C-133.69931544 4.07874125 -124.20364003 2.26610025 -110.6875 2.2734375 C-108.85529907 2.2724707 -108.85529907 2.2724707 -106.98608398 2.27148438 C-99.5544316 2.31499348 -92.56965759 2.82851835 -85.23828125 4.00390625 C-68.87241173 6.03876994 -55.49608617 4.16684123 -40.703125 -3.13671875 C-26.87898769 -9.30943678 -12.81497895 -7.69680138 0 0 Z " fill="#7F7F7F" transform="translate(337.5625,21.5390625)"/>
<path d="M0 0 C2.94394005 0.39325359 3.69721221 1.58366709 5.48046875 3.90625 C11.37873155 11.11100972 17.99195041 15.76419289 26.10546875 20.28125 C26.86472656 20.714375 27.62398438 21.1475 28.40625 21.59375 C56.68808505 36.80414868 94.82142711 37.01167037 125.10546875 28.28125 C141.90366628 23.10577295 157.27503023 15.85955887 168.90698242 2.15942383 C171.10546875 0.28125 171.10546875 0.28125 173.60058594 -0.06860352 C174.52516602 0.00430908 175.44974609 0.07722168 176.40234375 0.15234375 C177.43609131 0.22936523 178.46983887 0.30638672 179.53491211 0.38574219 C180.6306958 0.49563477 181.72647949 0.60552734 182.85546875 0.71875 C183.97767822 0.82219727 185.0998877 0.92564453 186.25610352 1.03222656 C203.20527501 2.79931186 218.91804324 7.72396909 230.10546875 21.28125 C238.01038239 31.86146605 244.19316253 43.41916612 250.3828125 55.05517578 C251.95117665 57.99230218 253.53274215 60.92166359 255.12101746 63.84803772 C256.50789411 66.40375307 257.89069578 68.96166035 259.27285767 71.51992798 C259.94919441 72.7705652 260.62673283 74.02055336 261.30551147 75.26986694 C262.25751542 77.02390503 263.20310558 78.78141956 264.1484375 80.5390625 C264.6952417 81.5511377 265.2420459 82.56321289 265.80541992 83.60595703 C266.90830997 85.8755287 267.63231369 87.81761848 268.10546875 90.28125 C267.26064941 90.27077637 266.41583008 90.26030273 265.54541016 90.24951172 C242.25820591 89.99436385 242.25820591 89.99436385 219.10546875 92.28125 C220.01053632 76.76030405 220.01053632 76.76030405 220.66796875 71.03125 C222.16755927 58.39648826 222.16755927 58.39648826 217.10546875 47.28125 C212.7210559 43.88109309 209.27255134 42.16204027 203.74072266 42.14080811 C202.84903381 42.13509796 201.95734497 42.12938782 201.03863525 42.12350464 C200.06295593 42.12238678 199.08727661 42.12126892 198.08203125 42.12011719 C196.53778473 42.11266983 196.53778473 42.11266983 194.96234131 42.10507202 C191.55171037 42.09044842 188.1411259 42.0836491 184.73046875 42.078125 C182.36539712 42.07237504 180.0003255 42.06661729 177.63525391 42.06085205 C172.67545351 42.05034241 167.71566934 42.04449906 162.75585938 42.04101562 C156.38997223 42.03552183 150.02429801 42.01147462 143.65847778 41.98304367 C138.77383794 41.96445556 133.88924987 41.9592138 129.00457764 41.95767975 C126.6569502 41.95464555 124.30932383 41.94659138 121.96173096 41.93349457 C118.68395571 41.91650935 115.4067072 41.91829564 112.12890625 41.92480469 C111.15322693 41.9155899 110.17754761 41.90637512 109.17230225 41.8968811 C108.2806134 41.90245026 107.38892456 41.90801941 106.47021484 41.91375732 C105.69519623 41.91229076 104.92017761 41.9108242 104.12167358 41.9093132 C101.5458252 42.38448952 100.69371809 43.23140547 99.10546875 45.28125 C98.77546875 46.27125 98.44546875 47.26125 98.10546875 48.28125 C94.83510147 48.42635162 91.56555868 48.51524373 88.29296875 48.59375 C87.36419922 48.63564453 86.43542969 48.67753906 85.47851562 48.72070312 C82.92850951 48.76673212 80.61069104 48.76540402 78.10546875 48.28125 C76.09375 45.82421875 76.09375 45.82421875 75.10546875 43.28125 C72.76038184 42.10870655 71.35714551 42.14558405 68.74276733 42.12734985 C67.82602234 42.11874939 66.90927734 42.11014893 65.9647522 42.10128784 C64.95592987 42.09702789 63.94710754 42.09276794 62.90771484 42.08837891 C61.84738037 42.08020142 60.7870459 42.07202393 59.69458008 42.06359863 C56.17269459 42.03871314 52.65084956 42.02221862 49.12890625 42.0078125 C47.92714375 42.00248882 46.72538124 41.99716515 45.48720169 41.99168015 C39.12379849 41.96493219 32.76041501 41.94556435 26.39697266 41.93115234 C19.8262683 41.9145197 13.25606698 41.8697574 6.6855526 41.8187809 C1.63257274 41.78510507 -3.42028793 41.77357433 -8.4733696 41.76792526 C-10.89504201 41.76121154 -13.31670654 41.74598651 -15.73826981 41.72203445 C-19.13273137 41.69038086 -22.52583946 41.69034748 -25.92041016 41.69775391 C-27.41542557 41.6731459 -27.41542557 41.6731459 -28.94064331 41.64804077 C-35.50346222 41.70651222 -39.80293579 43.06945698 -44.89453125 47.28125 C-48.80165962 51.62677664 -48.27962 56.42704116 -48.14453125 61.96875 C-48.13357422 62.86706543 -48.12261719 63.76538086 -48.11132812 64.69091797 C-48.02493331 69.86052079 -47.76788097 74.96151979 -47.1171875 80.09375 C-46.70472921 84.14597177 -46.81663341 88.21325191 -46.89453125 92.28125 C-48.9155783 92.13840908 -50.93636102 91.99182617 -52.95703125 91.84375 C-54.64505859 91.72193359 -54.64505859 91.72193359 -56.3671875 91.59765625 C-58.64438011 91.3933898 -60.9169567 91.12119173 -63.17578125 90.76757812 C-66.81132474 90.29213152 -70.25806749 90.16731016 -73.921875 90.18359375 C-75.85063477 90.18842773 -75.85063477 90.18842773 -77.81835938 90.19335938 C-79.1562507 90.20171198 -80.49414132 90.21017689 -81.83203125 90.21875 C-83.19726399 90.22377341 -84.56249851 90.22833483 -85.92773438 90.23242188 C-89.25004582 90.24416149 -92.57226533 90.26058321 -95.89453125 90.28125 C-90.28850369 77.84905947 -84.00236959 65.88360075 -77.37744141 53.96630859 C-75.97175918 51.42108418 -74.5909813 48.86416061 -73.21875 46.30078125 C-68.40220006 37.35760961 -63.29247103 29.18531958 -56.89453125 21.28125 C-56.25644531 20.43304688 -55.61835937 19.58484375 -54.9609375 18.7109375 C-42.0614772 3.54370819 -23.47535108 1.9733532 -5.0078125 0.45068359 C-3.33715633 0.31673773 -1.66816092 0.16208851 0 0 Z " fill="#62ADD6" transform="translate(168.89453125,244.71875)"/>
<path d="M0 0 C1.39230517 2.78461034 0.93828498 4.84947599 0.6875 7.9375 C0.60886719 8.99839844 0.53023437 10.05929687 0.44921875 11.15234375 C0 14 0 14 -2 17 C-4.86722764 17.29860027 -7.51921494 17.39974099 -10.38928223 17.3742218 C-11.2675437 17.37819621 -12.14580518 17.38217061 -13.05068064 17.38626546 C-16.01116237 17.39593577 -18.97117185 17.38404187 -21.93164062 17.37231445 C-24.04689208 17.37474086 -26.1621424 17.3784587 -28.27738953 17.38337708 C-34.03554703 17.39281042 -39.79353529 17.38334013 -45.55167961 17.37004495 C-51.56590691 17.35875972 -57.58012551 17.36283568 -63.59436035 17.36479187 C-73.69591042 17.36567578 -83.7973935 17.3545743 -93.89892578 17.33618164 C-105.59256981 17.31501257 -117.28611565 17.31150357 -128.97977495 17.3177436 C-140.20952691 17.32343022 -151.43924414 17.31779989 -162.66899109 17.30657005 C-167.45684956 17.30191475 -172.24468687 17.30105423 -177.032547 17.3031559 C-182.66642616 17.3050339 -188.30020481 17.29697259 -193.93406105 17.2810955 C-196.00696713 17.27683812 -198.07988338 17.2760118 -200.15279198 17.27878571 C-202.9722124 17.28198727 -205.79132865 17.27297716 -208.61071777 17.26069641 C-209.44008173 17.26447573 -210.2694457 17.26825506 -211.1239419 17.27214891 C-216.77167121 17.22832879 -216.77167121 17.22832879 -219 15 C-220 11 -220 11 -220 1 C-147.4 0.67 -74.8 0.34 0 0 Z " fill="#C1C6CB" transform="translate(365,403)"/>
<path d="M0 0 C4.81029354 1.86427644 7.93128147 5.83185852 11.40234375 9.48046875 C14.69871535 12.87800776 17.96911341 15.50927306 22 18 C19.26688752 25.02346348 10.98046216 29.47969699 4.515625 32.77734375 C-25.64941731 45.94941223 -60.37020301 48.75742618 -91.671875 37.375 C-100.4893277 33.73210874 -112.36444832 28.38167176 -117.27734375 19.7578125 C-117.51582031 19.17773438 -117.75429687 18.59765625 -118 18 C-117.27554688 17.50371094 -116.55109375 17.00742188 -115.8046875 16.49609375 C-110.03549343 12.44227338 -105.30779247 8.58848752 -101 3 C-96.53193846 3.56986367 -93.60237969 5.31033532 -89.8125 7.6875 C-72.90871686 17.86288299 -53.87253676 21.68634815 -34.5625 17.03125 C-23.150426 13.72775489 -8.59147093 8.59147093 0 0 Z " fill="#F8C066" transform="translate(303,220)"/>
<path d="M0 0 C2.5877923 14.35492331 4.26865353 28.3733078 4 43 C-45.43345037 44.01691669 -45.43345037 44.01691669 -62.9375 28.375 C-66.68766672 24.0566262 -66.35603003 19.62495822 -66.25 14.14453125 C-65.87059098 9.37227714 -65.2902742 5.62374793 -62 2 C-43.08762067 -8.32259448 -20.02517452 -4.62914251 0 0 Z " fill="#FCDAA3" transform="translate(124,353)"/>
<path d="M0 0 C0.75667969 0.24363281 1.51335937 0.48726563 2.29296875 0.73828125 C5.59027262 2.00555104 7.45876385 3.15058122 9.37890625 6.1640625 C12.12533059 12.34590962 13.5985614 18.62203034 11.22265625 25.12890625 C7.03590017 32.98093633 -0.71342057 36.40376971 -8.8125 39.1875 C-25.30689976 43.80361422 -41.97557926 44.48063733 -59 44 C-58.41757646 29.57999656 -56.75539558 15.31894178 -55 1 C-52.6884626 0.51576489 -50.37592629 0.03755888 -48.0625 -0.4375 C-46.77472656 -0.70433594 -45.48695313 -0.97117187 -44.16015625 -1.24609375 C-30.09926048 -3.92898501 -13.50995211 -5.34331439 0 0 Z " fill="#FCDAA3" transform="translate(441,352)"/>
<path d="M0 0 C5.36390761 4.52113326 10.56534246 9.90723934 11.44921875 17.19921875 C12.03080996 25.77768912 10.39447844 32.25824944 4.82421875 38.94921875 C-0.93591781 44.99471987 -7.08619317 48.76139523 -15.55078125 49.19921875 C-16.39640625 49.26109375 -17.24203125 49.32296875 -18.11328125 49.38671875 C-28.33765559 49.84113539 -36.05511665 46.04899842 -43.55078125 39.19921875 C-49.45865723 31.58116814 -50.57804576 24.67656231 -49.55078125 15.19921875 C-47.25382435 6.87420746 -41.79039774 1.61284459 -34.55078125 -2.80078125 C-23.25956438 -8.07356649 -10.21637773 -7.21248106 0 0 Z " fill="#040403" transform="translate(274.55078125,338.80078125)"/>
<path d="M0 0 C1.03374756 0.07702148 2.06749512 0.15404297 3.13256836 0.23339844 C4.22835205 0.34329102 5.32413574 0.45318359 6.453125 0.56640625 C8.13643921 0.72157715 8.13643921 0.72157715 9.85375977 0.87988281 C26.80293126 2.64696811 42.51569949 7.57162534 53.703125 21.12890625 C61.60803864 31.7091223 67.79081878 43.26682237 73.98046875 54.90283203 C75.5488329 57.83995843 77.1303984 60.76931984 78.71867371 63.69569397 C80.10555036 66.25140932 81.48835203 68.8093166 82.87051392 71.36758423 C83.54685066 72.61822145 84.22438908 73.86820961 84.90316772 75.11752319 C85.85517167 76.87156128 86.80076183 78.62907581 87.74609375 80.38671875 C88.29289795 81.39879395 88.83970215 82.41086914 89.40307617 83.45361328 C90.50596622 85.72318495 91.22996994 87.66527473 91.703125 90.12890625 C89.60231328 90.16334579 87.50078706 90.18590373 85.39990234 90.15625 C83.59791913 90.13797894 81.79466724 90.17214275 79.99462891 90.2578125 C76.98644623 90.2535433 74.57571072 90.04481475 71.703125 89.12890625 C68.87349732 86.19643925 67.48111488 82.78286698 65.890625 79.06640625 C64.89507715 76.96471255 63.8935598 74.86583825 62.88671875 72.76953125 C62.37351074 71.67833984 61.86030273 70.58714844 61.33154297 69.46289062 C58.62976327 63.93133088 55.55924788 58.6284659 52.453125 53.31640625 C51.89906982 52.34630615 51.34501465 51.37620605 50.77416992 50.37670898 C41.71671622 34.83489613 29.95877892 20.36960278 12.01367188 15.32421875 C3.03763796 13.04291981 -6.09172663 11.99473704 -15.296875 11.12890625 C-14.38239654 10.04372514 -13.46517093 8.96085887 -12.546875 7.87890625 C-12.03640625 7.275625 -11.5259375 6.67234375 -11 6.05078125 C-10.43796875 5.4165625 -9.8759375 4.78234375 -9.296875 4.12890625 C-8.71099609 3.43192627 -8.12511719 2.73494629 -7.52148438 2.0168457 C-4.7347208 -0.34817215 -3.59016348 -0.28312112 0 0 Z " fill="#4982C7" transform="translate(345.296875,244.87109375)"/>
<path d="M0 0 C4.240021 2.65265873 7.23931684 5.85897527 10 10 C-15.94128564 30.31969778 -54.55549917 30.26952429 -86 30 C-85.01 24.72 -84.02 19.44 -83 14 C-81.29457031 13.96261719 -79.58914063 13.92523438 -77.83203125 13.88671875 C-44.36398443 13.2820846 -44.36398443 13.2820846 -13.30078125 1.8515625 C-8.71066419 -0.72324873 -5.12155714 -1.21447221 0 0 Z " fill="#88531D" transform="translate(463,397)"/>
<path d="M0 0 C3.05078125 1.390625 3.05078125 1.390625 6.3125 3.25 C26.36942379 13.9752955 50.87333462 13.35913622 73 14 C74.32 19.28 75.64 24.56 77 30 C47.36399931 30.95943887 5.99948835 30.92814657 -18 11 C-16.37807179 9.35113941 -14.75236228 7.7059976 -13.125 6.0625 C-12.22007813 5.14597656 -11.31515625 4.22945313 -10.3828125 3.28515625 C-6.83533631 -0.11693157 -4.87413617 -0.39598717 0 0 Z " fill="#88531D" transform="translate(57,397)"/>
<path d="M0 0 C0.07485365 6.17062815 0.12893104 12.34098472 0.16479492 18.51196289 C0.17976556 20.6057598 0.20014933 22.699526 0.22631836 24.79321289 C0.40616691 39.5654789 0.36745756 52.9202527 -6.8125 66.25 C-7.16795898 66.92981934 -7.52341797 67.60963867 -7.88964844 68.31005859 C-16.6021522 84.73340316 -29.77075321 101.99526145 -47 110 C-45.31074457 106.01957054 -42.59171756 102.93154938 -39.875 99.625 C-26.82002564 83.33736532 -17.62127319 64.33283827 -17.48828125 43.20703125 C-17.47033005 42.13498947 -17.45237885 41.06294769 -17.43388367 39.9584198 C-17.3802448 36.57648507 -17.34603478 33.19468762 -17.3125 29.8125 C-17.27928592 27.5019342 -17.24479256 25.19138642 -17.20898438 22.88085938 C-17.12454573 17.25402957 -17.05600213 11.62718091 -17 6 C-17.99 5.67 -18.98 5.34 -20 5 C-17.04283593 4.16247839 -14.084087 3.33069969 -11.125 2.5 C-10.28324219 2.26152344 -9.44148438 2.02304688 -8.57421875 1.77734375 C-7.76855469 1.55175781 -6.96289062 1.32617188 -6.1328125 1.09375 C-5.38918457 0.88427734 -4.64555664 0.67480469 -3.87939453 0.45898438 C-2 0 -2 0 0 0 Z " fill="#F9C167" transform="translate(334,103)"/>
<path d="M0 0 C0.7115625 0.86625 0.7115625 0.86625 1.4375 1.75 C17.18856865 15.58020662 47.29356626 14.1053232 67 15 C67 13.35 67 11.7 67 10 C67.33 10 67.66 10 68 10 C68.68271293 18.35104207 69.15392039 26.61988971 69 35 C19.56654963 36.01691669 19.56654963 36.01691669 2.0625 20.375 C-1.15060884 16.67505648 -1.13660556 13.73507022 -1.125 9 C-1.12757812 7.948125 -1.13015625 6.89625 -1.1328125 5.8125 C-1 3 -1 3 0 0 Z " fill="#F9C167" transform="translate(59,361)"/>
<path d="M0 0 C1.76160451 3.52320903 1.51683192 7.15452437 1 11 C-1.20642754 17.22527769 -5.4894984 20.62353574 -11.16796875 23.69140625 C-29.47434917 32.15021651 -50.20350177 32.55889926 -70 32 C-69.85919445 29.22882696 -69.71256882 26.45817359 -69.5625 23.6875 C-69.52318359 22.90181641 -69.48386719 22.11613281 -69.44335938 21.30664062 C-69.40146484 20.54931641 -69.35957031 19.79199219 -69.31640625 19.01171875 C-69.27974854 18.31522217 -69.24309082 17.61872559 -69.20532227 16.90112305 C-69 15 -69 15 -68 12 C-67.06655762 11.97812622 -67.06655762 11.97812622 -66.11425781 11.95581055 C-44.04213149 11.38274525 -20.01616981 0 0 0 Z " fill="#F9C167" transform="translate(452,364)"/>
<path d="M0 0 C4.81029354 1.86427644 7.93128147 5.83185852 11.40234375 9.48046875 C14.69871535 12.87800776 17.96911341 15.50927306 22 18 C20.47236536 22.08596252 17.88915809 23.79826179 14.375 26.25 C13.37210937 26.95640625 12.36921875 27.6628125 11.3359375 28.390625 C10.17964844 29.18726563 10.17964844 29.18726563 9 30 C3.36096227 27.43378106 -0.71956661 23.95153437 -5.31640625 19.86328125 C-8.31387697 17.78206796 -9.44688361 17.40498051 -13 18 C-15.33883709 18.9236995 -15.33883709 18.9236995 -17.625 20.25 C-34.27004978 28.95474455 -51.8466045 31.78118403 -70.07421875 26.38671875 C-82.53428205 22.16195392 -93.51386396 15.8782796 -104 8 C-103.01 6.35 -102.02 4.7 -101 3 C-96.53193846 3.56986367 -93.60237969 5.31033532 -89.8125 7.6875 C-72.90871686 17.86288299 -53.87253676 21.68634815 -34.5625 17.03125 C-23.150426 13.72775489 -8.59147093 8.59147093 0 0 Z " fill="#EAA73A" transform="translate(303,220)"/>
<path d="M0 0 C8.44500022 6.01991569 15.01456734 15.32476358 17.4375 25.4609375 C18.76212393 37.19137 16.72467934 46.5432289 9.5 55.8984375 C4.37483187 62.08328254 0.2054266 64.88102022 -7.5625 66.4609375 C-6.63354138 64.05903549 -5.70452422 61.7273625 -4.4921875 59.453125 C0.05254231 50.33000072 -0.20043401 38.96518522 -2.2578125 29.140625 C-3.17505146 26.43515547 -4.24643664 23.99466697 -5.5625 21.4609375 C-5.98660156 20.60242188 -6.41070312 19.74390625 -6.84765625 18.859375 C-12.63553423 8.18646351 -21.42734677 1.95543371 -32.5625 -2.5390625 C-34.21860843 -2.9214154 -35.88384992 -3.27256148 -37.5625 -3.5390625 C-37.5625 -3.8690625 -37.5625 -4.1990625 -37.5625 -4.5390625 C-24.30696148 -8.75981581 -11.92260738 -7.16083431 0 0 Z " fill="#646464" transform="translate(337.5625,21.5390625)"/>
<path d="M0 0 C2.35883842 1.5562911 3.56039182 2.48755648 4.69921875 5.12109375 C5.36433286 9.60009003 5.32093685 12.97713245 3.13671875 16.99609375 C-0.90896729 20.52310209 -5.01185014 22.26075357 -10.36328125 22.49609375 C-16.12283538 21.94756479 -19.01748066 20.34859866 -23.17578125 16.37109375 C-25.75595131 12.42495131 -26.19328153 10.74586791 -25.30078125 6.12109375 C-23.10078941 2.5224316 -20.5316794 -0.13388895 -16.92578125 -2.31640625 C-10.38325827 -3.71837546 -5.7810897 -3.28238688 0 0 Z " fill="#F6BE65" transform="translate(265.30078125,350.87890625)"/>
<path d="M0 0 C3.87743599 0.63305077 5.34344116 1.6721788 8.0625 4.5 C8.69140625 8.03125 8.69140625 8.03125 8.625 12 C8.62628906 13.3096875 8.62757813 14.619375 8.62890625 15.96875 C8.0625 19.5 8.0625 19.5 6.25 21.94140625 C3.08469024 24.19668946 0.84943259 23.98197324 -2.9375 23.5 C-5.04108381 21.95737187 -5.77804159 20.81891683 -6.9375 18.5 C-7.11234831 16.2126402 -7.20470049 13.91858557 -7.25 11.625 C-7.28738281 10.39007813 -7.32476562 9.15515625 -7.36328125 7.8828125 C-6.9375 4.5 -6.9375 4.5 -5.1015625 2.0859375 C-2.9375 0.5 -2.9375 0.5 0 0 Z " fill="#040403" transform="translate(216.9375,133.5)"/>
<path d="M0 0 C4.53734574 1.34439874 4.53734574 1.34439874 6.375 4 C6.70132361 6.58413022 6.83969974 8.85847049 6.8125 11.4375 C6.83183594 12.75621094 6.85117187 14.07492188 6.87109375 15.43359375 C6.375 19 6.375 19 4.56640625 21.4375 C1.33735351 23.73985489 -0.7633656 23.62061981 -4.625 23 C-7.36079673 20.33272054 -8.51242309 18.62732514 -9.19140625 14.84375 C-9.18096936 5.90976804 -9.18096936 5.90976804 -6.5625 1.625 C-3.625 0 -3.625 0 0 0 Z " fill="#040302" transform="translate(288.625,134)"/>
<path d="M0 0 C2.64 0 5.28 0 8 0 C8.76056338 14.04929577 8.76056338 14.04929577 4 20 C2.02 20.99 2.02 20.99 0 22 C0 14.74 0 7.48 0 0 Z " fill="#D89A35" transform="translate(349,120)"/>
<path d="M0 0 C2.64 0 5.28 0 8 0 C8 7.26 8 14.52 8 22 C4.20781641 20.1039082 2.74023344 19.00550671 0.75 15.3515625 C-0.82579471 10.41078951 -0.27723697 5.12118286 0 0 Z " fill="#DB9C36" transform="translate(147,120)"/>
</svg>
